<svg width="546" height="192" viewBox="0 0 546 192" fill="none" xmlns="http://www.w3.org/2000/svg">
<path fill-rule="evenodd" clip-rule="evenodd" d="M73.0139 150.935C92.0902 156.934 110.289 155.848 122.953 140.563C138.16 122.165 149.349 131.711 136.216 146.001C120.301 163.328 95.23 170.897 71.2883 163.368C38.2979 152.993 19.9738 117.856 30.3488 84.8651C40.7238 51.8745 75.8607 33.5503 108.851 43.9254C119.086 47.1443 127.602 53.703 134.6 60.892C145.503 78.6626 139.722 87.3317 128.992 70.5064C118.262 53.6811 107.36 49.6751 105.091 48.9372C76.9361 40.0829 46.9079 55.7429 38.0536 83.8976C29.1994 112.052 44.8594 142.081 73.0139 150.935ZM126.914 148.52C129.89 146.522 139.775 139.035 136.395 134.027C133.014 129.019 122.5 137.677 126.914 148.52Z" fill="#757E78"/>
<path fill-rule="evenodd" clip-rule="evenodd" d="M52.7572 57.2365C52.7572 57.2365 64.3057 49.3652 82.3472 53.517C82.3472 53.517 61.3177 55.3657 47.2138 64.3996L52.7952 57.2143L52.7572 57.2365Z" fill="#757E78"/>
<path d="M77.3602 46.5144C83.5947 38.9227 87.2619 29.0239 89.8176 20.2753L87.7239 19.7799C75.271 16.8742 63.0416 19.5813 52.529 26.0558C22.6258 44.4284 12.2611 86.0943 30.7854 116.241L35.9759 106.267C18.1942 81.016 29.0615 44.594 54.3697 29.0146C63.5097 23.3799 75.1754 20.4956 85.9492 22.4167C80.8896 34.877 70.1058 45.6349 70.0668 45.6552L77.3602 46.5144Z" fill="#757E78"/>
<path d="M99.3991 46.0058C119.87 30.5678 129.116 43.2562 150.71 43.4288C149.412 49.215 143.054 57.094 127.664 56.6877L130.538 62.5797C148.034 63.0288 151.966 53.637 155.39 39.8473C131.158 40.7033 115.551 25.8513 93.2828 42.6478L99.3991 46.0058Z" fill="#757E78"/>
<path d="M87.0724 20.812C86.9554 20.873 44.7976 36.435 32.7383 78.5134L43.1214 70.7919C56.4357 31.3577 87.8146 22.8059 87.8926 22.7653L87.0724 20.812Z" fill="#757E78"/>
<path d="M152.899 41.2217C152.86 41.2421 133.289 50.6056 110.281 46.5324L110.325 50.8498C134.536 55.1385 153.927 43.2403 153.966 43.22L152.89 41.2514L152.899 41.2217Z" fill="#757E78"/>
<path d="M32.2817 92.5188C32.291 92.4891 34.5424 83.7752 23.9033 77.0714L22.8688 78.7021C32.3051 84.6691 30.4049 92.059 30.4049 92.059L32.2817 92.5188Z" fill="#757E78"/>
<path d="M49.725 53.5395C49.725 53.5395 52.8457 51.3911 58.3385 52.7925L58.828 50.9251C52.4858 49.3218 48.6648 51.9346 48.6648 51.9346L49.725 53.5395Z" fill="#757E78"/>
<path d="M105.007 47.257C105.007 47.257 108.437 45.3689 109.296 38.0755L107.374 37.8624C106.665 44.1598 104.064 45.5911 104.064 45.5911L105.007 47.257Z" fill="#757E78"/>
<path d="M123.294 51.5019C123.323 51.5112 132.194 52.0189 133.865 59.4561L135.727 59.0309C133.747 50.1924 123.438 49.5912 123.408 49.5819L123.264 51.4926L123.294 51.5019Z" fill="#757E78"/>
<path d="M33.5175 87.8546C33.5268 87.8249 35.7782 79.111 25.1392 72.4072L24.1047 74.038C33.541 80.0049 31.6408 87.3948 31.6408 87.3948L33.5175 87.8546Z" fill="#757E78"/>
<path d="M34.9003 82.9445C34.9096 82.9148 37.161 74.2009 26.522 67.497L25.4875 69.1278C34.9238 75.0948 33.0236 82.4847 33.0143 82.5143L34.891 82.9741L34.9003 82.9445Z" fill="#757E78"/>
<path d="M36.648 78.8285C36.6573 78.7989 39.2944 70.2062 29.0013 63.0243L27.9168 64.6068C37.0852 71.0111 34.829 78.2891 34.8196 78.3187L36.6684 78.8675L36.648 78.8285Z" fill="#757E78"/>
<path d="M38.0074 73.7777C38.0167 73.7481 40.6538 65.1554 30.3607 57.9736L29.2762 59.556C38.4445 65.9603 36.1883 73.2383 36.179 73.2679L38.0277 73.8167L38.0074 73.7777Z" fill="#757E78"/>
<path d="M39.4781 68.7973C39.4874 68.7676 42.1245 60.175 31.8314 52.9931L30.7469 54.5755C39.9152 60.9799 37.659 68.2578 37.6497 68.2875L39.4984 68.8363L39.4781 68.7973Z" fill="#757E78"/>
<path d="M41.5289 65.0707C41.5382 65.041 44.1753 56.4484 33.8822 49.2665L32.7977 50.849C41.966 57.2533 39.7098 64.5312 39.7005 64.5609L41.5492 65.1097L41.5289 65.0707Z" fill="#757E78"/>
<path d="M43.3689 60.8918C43.3782 60.8621 46.4603 52.4094 36.5615 44.6995L35.3676 46.2149C44.1993 53.0677 41.5575 60.2243 41.5481 60.254L43.3689 60.8918Z" fill="#757E78"/>
<path d="M45.6363 57.1066C45.6457 57.0769 48.7277 48.6243 38.8289 40.9143L37.6351 42.4298C46.4668 49.2825 43.8249 56.4391 43.8156 56.4688L45.6363 57.1066Z" fill="#757E78"/>
<path d="M48.1856 54.3889C48.195 54.3592 51.5483 45.6658 41.3665 37.5083L40.1726 39.0238C49.2281 46.3054 46.3742 53.7214 46.3649 53.7511L48.1763 54.4186L48.1856 54.3889Z" fill="#757E78"/>
<path d="M50.8821 51.7189C50.8914 51.6892 54.5025 43.1095 44.5809 34.6426L43.3371 36.1097C52.1805 43.6507 49.119 51.0014 49.1097 51.0311L50.9024 51.7579L50.8821 51.7189Z" fill="#757E78"/>
<path d="M53.3295 48.6029C53.3389 48.5733 57.4356 40.2115 48.016 31.1851L46.7018 32.565C55.0916 40.6154 51.6038 47.7668 51.6038 47.7668L53.3389 48.5733L53.3295 48.6029Z" fill="#757E78"/>
<path d="M55.6945 45.5358C55.7039 45.5061 60.3956 37.4292 51.6246 27.7919L50.2104 29.075C58.0297 37.6958 54.0358 44.5903 54.0358 44.5903L55.6945 45.5358Z" fill="#757E78"/>
<path d="M58.3431 43.3368C58.3524 43.3072 63.3475 35.7169 55.3785 25.8101L53.8846 27.0356C60.9986 35.8259 56.7419 42.3117 56.7123 42.3023L58.3431 43.3368Z" fill="#757E78"/>
<path d="M62.2835 38.2749C62.8856 36.6712 63.3853 34.2528 62.8323 31.2425C62.4318 29.0952 61.5048 26.652 59.6989 23.9975L58.1237 25.067C59.7686 27.5078 60.5828 29.6874 60.9301 31.5897C61.417 34.188 60.9699 36.2317 60.4721 37.6074L62.2835 38.2749Z" fill="#757E78"/>
<path d="M65.9212 34.7893C66.2707 33.3669 66.3981 31.6139 66.1273 29.5726C65.847 27.5609 65.0998 25.272 63.6702 22.7685L62.0043 23.7117C63.3025 26.0109 63.9574 28.0752 64.2436 29.8605C64.5002 31.6364 64.3583 33.1241 64.0741 34.3388L65.9508 34.7986L65.9212 34.7893Z" fill="#757E78"/>
<path d="M68.704 32.5762C69.0721 31.0945 69.2776 29.3008 69.016 27.2299C68.8002 25.5319 68.325 23.6219 67.4234 21.5127L65.6558 22.2609C66.4854 24.1845 66.9182 25.9181 67.0917 27.4397C67.2999 29.2657 67.1394 30.8127 66.8069 32.0774L68.6743 32.5669L68.704 32.5762Z" fill="#757E78"/>
<path d="M72.2117 30.5443C72.5332 29.2109 72.664 27.6546 72.5448 25.8566C72.4306 24.3536 72.1165 22.6573 71.4946 20.799L69.6753 21.4005C70.2455 23.1121 70.5173 24.6321 70.6392 26.0071C70.7643 27.5788 70.6302 28.9384 70.3646 30.0938L72.2507 30.5239L72.2117 30.5443Z" fill="#757E78"/>
<path d="M75.8272 28.0592C76.0834 26.9335 76.2489 25.6815 76.2347 24.2751C76.2333 23.0358 76.1115 21.6608 75.8396 20.1408L73.967 20.4974C74.2168 21.88 74.3463 23.127 74.3461 24.268C74.3382 25.537 74.2193 26.6407 73.9708 27.6384L75.8568 28.0685L75.8272 28.0592Z" fill="#757E78"/>
<path d="M78.4999 26.6303C78.7891 25.7106 79.0377 24.7129 79.1955 23.5889C79.3551 22.5632 79.4053 21.4706 79.4242 20.2702L77.4965 20.2834C77.5056 21.3948 77.4147 22.4095 77.2832 23.3461C77.133 24.3422 76.9124 25.2508 76.6605 26.0519L78.4999 26.6303Z" fill="#757E78"/>
<path d="M81.6895 24.9807C81.9931 24.3264 82.256 23.594 82.5079 22.793C82.7412 22.0513 82.9634 21.2409 83.1263 20.4119L81.2606 20.0208C81.107 20.8201 80.9128 21.5415 80.6982 22.2238C80.4836 22.9062 80.2393 23.5792 79.9451 24.2039L81.6895 24.9807Z" fill="#757E78"/>
<path d="M52.1145 50.177C52.1145 50.177 58.4388 47.2757 66.3445 51.1638L67.1807 49.438C58.4612 45.131 51.3663 48.4094 51.3273 48.4298L52.1145 50.177Z" fill="#757E78"/>
<path d="M55.0089 46.685C55.0089 46.685 61.3332 43.7836 69.239 47.6717L70.0751 45.946C61.3557 41.6389 54.2607 44.9174 54.2217 44.9377L55.0089 46.685Z" fill="#757E78"/>
<path d="M57.7852 43.4501C57.7852 43.4501 63.9442 40.6597 72.3856 44.8141L73.2218 43.0884C63.9666 38.5151 57.037 41.6825 56.998 41.7028L57.7852 43.4501Z" fill="#757E78"/>
<path d="M60.5797 40.1511C60.5797 40.1511 66.8887 37.5057 75.3598 41.6694L76.196 39.9437C66.9705 35.3797 59.8798 38.3335 59.8408 38.3538L60.55 40.1417L60.5797 40.1511Z" fill="#757E78"/>
<path d="M64.2602 36.6534C65.1901 36.3916 66.9254 36.0571 69.2684 36.1745C71.6411 36.3012 74.6215 36.8799 77.9747 38.5539L78.8108 36.8281C75.1703 35.0312 71.9525 34.3778 69.3535 34.2451C66.7545 34.1124 64.7743 34.5003 63.7366 34.7934L64.2602 36.6534Z" fill="#757E78"/>
<path d="M67.7275 33.4025C68.7948 33.1187 71.1871 32.6647 74.4421 33.1994C76.5232 33.5278 78.9356 34.2539 81.5657 35.6353L82.4612 33.9282C79.6124 32.4128 77.0126 31.6604 74.7739 31.315C71.1739 30.7371 68.4679 31.2554 67.2633 31.5612L67.7572 33.4118L67.7275 33.4025Z" fill="#757E78"/>
<path d="M72.8677 30.228C74.096 30.1578 75.71 30.209 77.635 30.6188C79.1057 30.9183 80.7281 31.4611 82.4928 32.2769L83.2993 30.5418C81.3956 29.6497 79.6248 29.0602 78.0355 28.7234C75.9231 28.2873 74.1218 28.2098 72.7561 28.302L72.8677 30.228Z" fill="#757E78"/>
<path d="M76.3501 27.9634C77.3428 27.917 78.6118 27.9249 80.1012 28.165C81.2845 28.3416 82.5789 28.6834 83.9546 29.1813L84.6221 27.3699C83.098 26.8254 81.6756 26.4759 80.4033 26.2713C78.7563 26.0142 77.3296 25.9893 76.2293 26.0671L76.3408 27.9931L76.3501 27.9634Z" fill="#757E78"/>
<path d="M80.653 25.5717C81.3133 25.6489 82.0236 25.7745 82.784 25.9485C83.5443 26.1224 84.3454 26.3743 85.1964 26.6745L85.8639 24.8631C84.9535 24.5442 84.0635 24.2643 83.2438 24.0717C82.4241 23.8792 81.6248 23.7256 80.8958 23.6593L80.653 25.5717Z" fill="#757E78"/>
<path d="M108.499 46.3897C108.499 46.3897 111.929 44.5016 112.788 37.2082L110.867 36.995C110.158 43.2925 107.556 44.7238 107.556 44.7238L108.499 46.3897Z" fill="#757E78"/>
<path d="M111.692 46.6124C111.692 46.6124 115.122 44.7244 115.982 37.4309L114.06 37.2178C113.351 43.5152 110.749 44.9465 110.749 44.9465L111.692 46.6124Z" fill="#757E78"/>
<path d="M114.603 47.8197C114.603 47.8197 118.549 45.6376 119.497 37.2311L117.576 37.018C116.739 44.4488 113.63 46.1445 113.62 46.1741L114.564 47.84L114.603 47.8197Z" fill="#757E78"/>
<path d="M117.706 49.2541C117.706 49.2541 121.965 46.9093 123.009 37.7832L121.087 37.5701C120.154 45.7205 116.763 47.5882 116.734 47.5789L117.677 49.2448L117.706 49.2541Z" fill="#757E78"/>
<path d="M121.491 49.5589C121.491 49.5589 125.75 47.2141 126.794 38.088L124.872 37.8749C123.939 46.0253 120.548 47.893 120.519 47.8837L121.462 49.5496L121.491 49.5589Z" fill="#757E78"/>
<path d="M125.183 49.8518C125.183 49.8518 129.441 47.507 130.486 38.3808L128.564 38.1677C127.631 46.3182 124.24 48.1859 124.21 48.1765L125.153 49.8424L125.183 49.8518Z" fill="#757E78"/>
<path d="M129.254 49.7532C129.254 49.7532 133.309 47.5398 134.272 38.8773L132.351 38.6642C131.468 46.3417 128.282 48.078 128.282 48.078L129.225 49.7439L129.254 49.7532Z" fill="#757E78"/>
<path d="M133.139 50.1634C133.139 50.1634 137.193 47.95 138.157 39.2875L136.235 39.0744C135.353 46.7518 132.166 48.4882 132.166 48.4882L133.11 50.1541L133.139 50.1634Z" fill="#757E78"/>
<path d="M139.662 47.4606C140.042 46.6672 140.409 45.7068 140.734 44.5701C141.059 43.4334 141.302 42.1407 141.474 40.6624L139.552 40.4492C139.408 41.8386 139.163 43.0329 138.866 44.0807C138.579 45.0987 138.249 45.9404 137.917 46.6838L139.652 47.4902L139.662 47.4606Z" fill="#757E78"/>
<path d="M143.692 46.2461C143.907 45.5637 144.11 44.8127 144.264 44.0133C144.408 43.2437 144.562 42.4443 144.645 41.5576L142.723 41.3445C142.62 42.1922 142.514 42.9415 142.369 43.6129C142.224 44.3826 142.049 45.0446 141.823 45.6583L143.662 46.2367L143.692 46.2461Z" fill="#757E78"/>
<path d="M127.225 50.2949C127.255 50.3042 136.126 50.8119 137.797 58.249L139.658 57.8238C137.678 48.9854 127.369 48.3842 127.34 48.3748L127.195 50.2855L127.225 50.2949Z" fill="#757E78"/>
<path d="M131.696 49.2476C131.726 49.2569 140.555 50.208 141.883 57.7002L143.776 57.3826C142.217 48.4485 131.959 47.3742 131.93 47.3649L131.716 49.2866L131.696 49.2476Z" fill="#757E78"/>
<path d="M138.268 48.782C139.861 49.3155 141.815 50.2559 143.357 51.8821C144.459 53.0437 145.321 54.5536 145.67 56.5542L147.563 56.2367C147.148 53.824 146.064 51.9835 144.751 50.56C142.968 48.6625 140.697 47.5897 138.876 46.9519L138.268 48.782Z" fill="#757E78"/>
<path d="M140.526 47.4052C141.868 47.6971 143.511 48.2789 144.993 49.2668C146.098 50.0053 147.098 50.9719 147.858 52.2868L149.524 51.3436C148.622 49.7557 147.401 48.5568 146.078 47.6843C144.356 46.5235 142.497 45.906 140.976 45.5582L140.546 47.4442L140.526 47.4052Z" fill="#757E78"/>
<path d="M145.369 46.6142C146.437 46.9501 147.518 47.453 148.533 48.1635C149.36 48.7495 150.13 49.5134 150.776 50.4663L152.381 49.4061C151.603 48.2489 150.653 47.3306 149.668 46.6294C148.473 45.7646 147.184 45.1964 145.968 44.8138L145.389 46.6532L145.369 46.6142Z" fill="#757E78"/>
<path fill-rule="evenodd" clip-rule="evenodd" d="M137.95 133.32C141.671 138.966 129.795 148.48 125.917 150.853C121.199 138.416 134.228 127.674 137.95 133.32Z" fill="#757E78"/>
<path fill-rule="evenodd" clip-rule="evenodd" d="M92.7088 158.621C92.7088 158.621 101.554 148.586 104.674 132.986C104.674 132.986 106.043 147.907 99.2702 155.695L92.7088 158.621Z" fill="#757E78"/>
<path fill-rule="evenodd" clip-rule="evenodd" d="M102.132 145.325C102.132 145.325 108.759 141.587 116.872 141.316C116.872 141.316 106.85 145.914 100.815 151.561L102.133 145.356L102.132 145.325Z" fill="#757E78"/>
<path d="M55.4996 107.741C55.648 108.232 55.7965 108.723 55.9435 109.183L55.945 109.214L57.3838 108.708L56.9429 107.328C56.827 106.867 56.6785 106.376 56.5596 105.852L55.0822 106.204C55.1996 106.697 55.3496 107.219 55.4996 107.741Z" fill="#757E78"/>
<path d="M58.2945 108.227C58.5543 109.087 58.8407 109.851 59.124 110.553L59.127 110.615L60.5317 110.049C60.2469 109.315 59.962 108.582 59.7378 107.815C59.5151 107.078 59.3219 106.309 59.1257 105.478L57.6468 105.799C57.843 106.63 58.0377 107.43 58.2945 108.227Z" fill="#757E78"/>
<path d="M61.6704 111.178C61.4812 110.449 61.2914 109.689 61.1591 108.866C60.9508 107.787 60.8 106.611 60.6758 105.34L62.1964 105.235C62.285 106.414 62.4327 107.527 62.6395 108.576C62.8523 109.749 63.1213 110.794 63.4182 111.776L62.559 112.036L62.7045 112.465C61.4476 112.869 59.7929 113.417 58.048 114.031C56.3046 114.676 54.4711 115.388 52.8876 116.12L52.2604 114.749C53.9045 113.984 55.7986 113.238 57.5419 112.592C59.0697 112.051 60.5062 111.546 61.6704 111.178Z" fill="#757E78"/>
<path d="M63.8848 113.684C63.7947 112.474 63.7622 111.168 63.8168 109.733C63.8714 108.298 64.0442 106.733 64.3693 105.098L65.846 105.368C65.5489 106.94 65.3731 108.443 65.3154 109.816C65.2582 111.178 65.2883 112.444 65.3739 113.585C65.484 113.566 65.5873 113.55 65.6835 113.534L65.8577 114.553C66.1047 113.233 66.4404 111.816 66.9269 110.298C67.4399 108.685 68.1362 107 69.0455 105.212L70.3865 105.894C69.5348 107.586 68.8665 109.207 68.3815 110.756C67.814 112.527 67.4283 114.196 67.2199 115.67L65.7152 115.463L65.6842 115.465C65.7092 115.339 65.7327 115.182 65.7577 115.056C64.3068 115.314 61.5588 115.79 58.7267 116.458C56.8796 116.89 54.9734 117.388 53.3512 117.965L52.8452 116.526C54.4984 115.948 56.4342 115.417 58.3745 114.98C61.0172 114.36 63.5715 113.888 65.099 113.631L63.8553 113.717L63.8848 113.684Z" fill="#757E78"/>
<path d="M70.0233 111.859C68.9944 113.746 68.3041 115.555 67.7911 117.168L67.7585 117.138C65.2689 117.166 57.8062 117.374 53.4065 118.461L53.7588 119.938C58.9274 118.659 68.6093 118.623 68.6403 118.621L68.6532 118.247L69.001 118.354C69.4784 116.65 70.1921 114.684 71.3332 112.543C72.275 110.784 73.4623 108.952 74.9883 107.04L73.8216 106.101C72.2365 108.077 70.9932 110.037 70.0233 111.859Z" fill="#757E78"/>
<path d="M69.1659 120.429C69.8621 118.746 70.8551 116.768 72.309 114.675C73.8213 112.484 75.7951 110.177 78.4242 107.9L79.4136 109.035C76.9042 111.212 74.988 113.423 73.5643 115.517C72.1407 117.61 71.1458 119.558 70.479 121.209L70.0025 121.015L69.9562 121.982C69.9251 121.984 59.3682 121.315 54.3799 122.461L54.0587 120.982C58.3538 119.997 66.4811 120.278 69.1659 120.429Z" fill="#757E78"/>
<path d="M70.211 123.099C70.2069 123.107 70.2027 123.114 70.1986 123.122L70.1971 123.091L70.211 123.099C71.0661 121.472 72.3921 119.362 74.4212 117.125C76.4601 114.877 79.2089 112.501 82.8411 110.363L83.5896 111.665C80.0771 113.705 77.479 115.98 75.5288 118.13C73.6096 120.278 72.3367 122.271 71.5396 123.804L70.211 123.099Z" fill="#757E78"/>
<path d="M75.9719 120.194C73.5974 122.583 72.1161 124.773 71.313 126.182L72.6259 126.927C73.401 125.582 74.7952 123.521 77.05 121.232C79.3359 118.941 82.4219 116.455 86.6162 114.351L85.9283 113.015C81.5832 115.219 78.3154 117.807 75.9719 120.194Z" fill="#757E78"/>
<path d="M76.865 123.825C74.2465 126.319 72.7978 128.538 72.25 129.437L72.219 129.438L73.5024 130.216C74.0206 129.35 75.3837 127.291 77.884 124.927C80.4154 122.562 84.0514 119.863 89.1201 117.81L88.5534 116.405C83.3014 118.529 79.4835 121.331 76.865 123.825Z" fill="#757E78"/>
<path d="M90.6686 120.194C78.0962 124.17 73.0742 132.292 73.0447 132.325L74.3296 133.134C74.3281 133.103 79.0621 125.462 91.1125 121.636L90.6686 120.194Z" fill="#757E78"/>
<path d="M79.0452 130.226C76.0745 132.52 74.3136 134.723 73.6415 135.627L73.6105 135.629L74.8378 136.534C75.4493 135.664 77.123 133.589 79.9445 131.428C82.7971 129.265 86.796 126.984 92.0904 125.73L91.7382 124.252C86.1968 125.55 82.016 127.933 79.0452 130.226Z" fill="#757E78"/>
<path d="M92.3729 128.331C80.8537 130.917 74.8089 138.497 74.7794 138.53L75.9461 139.469C75.9461 139.469 81.6673 132.278 92.6941 129.81L92.3729 128.331Z" fill="#757E78"/>
<path d="M82.9264 136.389C78.3479 138.916 75.6218 141.758 74.9436 142.539L74.9126 142.54L76.0513 143.543C76.7013 142.827 79.2782 140.117 83.6453 137.724C86.1319 136.358 89.1838 135.088 92.822 134.35L92.5318 132.87C88.7398 133.646 85.5342 134.954 82.9264 136.389Z" fill="#757E78"/>
<path d="M75.6657 145.542C75.6608 145.547 75.656 145.551 75.6511 145.556L75.6496 145.525L75.6657 145.542C76.8585 144.425 78.8576 142.747 81.6329 141.154C84.4195 139.555 87.9873 138.011 92.2763 137.21L92.5665 138.691C88.4638 139.482 85.0468 140.925 82.3814 142.456C79.7159 143.987 77.8006 145.575 76.6686 146.627L75.6657 145.542Z" fill="#757E78"/>
<path d="M83.2458 144.22C80.178 145.802 77.899 147.595 76.4965 148.846L76.4655 148.848L77.486 149.981C78.8588 148.762 81.0182 147.069 83.9336 145.557C86.0301 144.489 88.4727 143.498 91.3033 142.8L90.9511 141.323C87.9978 142.058 85.4324 143.086 83.2458 144.22Z" fill="#757E78"/>
<path d="M80.6605 149.951C79.0671 151.118 78.0874 152.1 77.5571 152.718L77.526 152.719L78.6647 153.722C79.167 153.169 80.0565 152.253 81.5302 151.185C83.0349 150.115 85.0912 148.863 87.8665 147.669L87.2687 146.266C84.3707 147.497 82.2243 148.816 80.6605 149.951Z" fill="#757E78"/>
<path d="M82.1165 152.994C80.4875 154.069 79.3851 155.088 78.6729 155.808L78.704 155.807L79.7836 156.875C80.4367 156.22 81.4505 155.299 82.9877 154.259C84.1023 153.488 85.4948 152.673 87.1996 151.874L86.5412 150.505C84.7448 151.34 83.2916 152.189 82.1165 152.994Z" fill="#757E78"/>
<path d="M82.3504 157.155C81.4163 157.792 80.6669 158.389 80.0388 158.918L80.0403 158.949L81.0298 160.084C81.6283 159.587 82.3481 159.023 83.2217 158.42C83.9445 157.918 84.8211 157.377 85.7924 156.862L85.0735 155.527C84.0415 156.076 83.1339 156.618 82.3504 157.155Z" fill="#757E78"/>
<path d="M53.5531 110.607C54.2418 110.044 54.9009 109.514 55.5306 109.016L55.4995 109.017L54.5692 107.817C53.91 108.348 53.2198 108.879 52.5621 109.441C51.903 109.971 51.2158 110.565 50.5596 111.158L51.5801 112.291C52.2067 111.731 52.8643 111.17 53.5531 110.607Z" fill="#757E78"/>
<path d="M55.6539 112.186C56.773 111.509 57.8951 110.893 58.8959 110.347L58.8944 110.315L58.1755 108.98C57.1451 109.56 56.023 110.175 54.8729 110.854C53.7538 111.531 52.6052 112.241 51.5202 112.979L52.3604 114.246C53.3847 113.542 54.5038 112.865 55.6539 112.186Z" fill="#757E78"/>
<path d="M54.9495 125.204C59.9485 124.276 70.5917 125.438 70.6228 125.437L70.6538 125.435L70.7986 123.934C70.7676 123.935 59.9054 122.752 54.6905 123.723L54.9495 125.204Z" fill="#757E78"/>
<path d="M55.5101 127.762C60.4279 127.086 71.3621 129.106 71.3931 129.105L71.6637 127.628C71.6311 127.599 60.478 125.558 55.3116 126.245L55.5101 127.762Z" fill="#757E78"/>
<path d="M56.8457 130.25C61.8113 129.914 72.5954 132.689 72.6264 132.688L72.6249 132.657L72.9902 131.207C72.9591 131.208 61.9545 128.382 56.7404 128.729L56.8457 130.25Z" fill="#757E78"/>
<path d="M57.0918 133.383C62.0574 133.047 72.8415 135.822 72.8725 135.821L72.871 135.789L73.2363 134.339C73.2052 134.341 62.2006 131.514 56.9865 131.862L57.0918 133.383Z" fill="#757E78"/>
<path d="M57.3826 136.793C62.4459 136.547 72.9148 139.244 72.9459 139.242L72.9444 139.211L73.3096 137.761C73.2785 137.762 62.5891 135.014 57.3084 135.271L57.3826 136.793Z" fill="#757E78"/>
<path d="M58.5712 140.098C63.7027 139.973 73.8238 142.562 73.8549 142.561L73.8534 142.53L74.2186 141.079C74.2186 141.079 63.9081 138.437 58.5281 138.575L58.5712 140.098Z" fill="#757E78"/>
<path d="M66.1481 144.151C70.0098 144.803 73.6335 145.685 74.4222 145.896L74.4207 145.865L74.786 144.415C73.9662 144.205 70.2478 143.297 66.3861 142.644C64.189 142.284 61.9638 141.988 60.125 141.953L60.106 143.48C61.8516 143.519 64.0442 143.786 66.1481 144.151Z" fill="#757E78"/>
<path d="M68.8634 147.474C71.2204 147.92 73.3925 148.406 74.6843 148.716L75.048 147.235C73.6941 146.928 71.4909 146.443 69.1339 145.998C66.7474 145.585 64.1434 145.182 62.022 145.099L61.9704 146.596C63.9986 146.684 66.5064 147.029 68.8634 147.474Z" fill="#757E78"/>
<path d="M70.4899 150.82C72.409 151.225 74.0159 151.614 74.9289 151.818L75.2926 150.337C74.316 150.104 72.678 149.717 70.7915 149.342C68.8724 148.937 66.6738 148.546 64.6069 148.305L64.4311 149.808C66.4358 150.053 68.6034 150.445 70.4899 150.82Z" fill="#757E78"/>
<path d="M63.0897 149.746C48.9821 142.027 58.5407 116.464 44.4233 107.905L46.6561 107.08C46.7167 107.045 69.7765 98.4797 84.8029 111.635C108.253 132.163 79.6073 149.302 91.6827 163.878L86.9688 161.71C73.7024 145.698 105.573 132.761 83.3596 113.324C71.8469 103.267 55.1469 106.884 49.4358 108.532C53.1261 112.058 54.7532 118.61 56.4652 125.626C58.721 134.857 61.2057 144.949 68.7561 149.096L63.0882 149.715L63.0897 149.746Z" fill="#757E78"/>
<path d="M77.5372 161.319C65.4689 141.139 79.2046 109.924 47.0073 109.251L47.0551 107.038C81.7761 107.744 70.9821 143.735 83.3557 164.43L77.5372 161.319Z" fill="#757E78"/>
<path d="M181.439 40.567H195.774V166H181.439V40.567ZM259.829 167.792C252.184 167.792 245.016 165.94 238.326 162.237C231.637 158.534 226.201 153.218 222.02 146.289C217.959 139.241 215.928 130.938 215.928 121.382C215.928 111.825 217.959 103.582 222.02 96.6534C226.201 89.6053 231.637 84.1699 238.326 80.3472C245.016 76.5244 252.184 74.6131 259.829 74.6131C267.475 74.6131 274.583 76.5244 281.153 80.3472C287.843 84.1699 293.218 89.6053 297.28 96.6534C301.342 103.582 303.372 111.825 303.372 121.382C303.372 130.938 301.342 139.241 297.28 146.289C293.218 153.218 287.843 158.534 281.153 162.237C274.583 165.94 267.475 167.792 259.829 167.792ZM259.829 154.353C264.847 154.353 269.565 153.098 273.985 150.59C278.405 148.081 281.989 144.378 284.737 139.48C287.604 134.463 289.037 128.43 289.037 121.382C289.037 114.334 287.604 108.361 284.737 103.463C281.989 98.4453 278.405 94.6226 273.985 91.9945C269.565 89.3664 264.847 88.0523 259.829 88.0523C254.812 88.0523 250.034 89.3664 245.494 91.9945C241.074 94.5032 237.431 98.2662 234.564 103.283C231.696 108.181 230.263 114.214 230.263 121.382C230.263 128.43 231.637 134.463 234.384 139.48C237.251 144.378 240.955 148.081 245.494 150.59C250.034 153.098 254.812 154.353 259.829 154.353ZM321.564 76.405H335.9V166H321.564V76.405ZM364.57 89.8442C358.478 89.8442 353.341 91.3972 349.16 94.5032C345.098 97.4897 341.873 101.193 339.483 105.613C337.214 109.914 335.72 114.095 335.004 118.156L334.825 107.763C334.825 106.688 335.063 104.896 335.541 102.388C336.019 99.8789 336.915 97.0716 338.229 93.9656C339.543 90.7402 341.275 87.6939 343.426 84.8269C345.695 81.8404 348.562 79.3915 352.027 77.4801C355.491 75.5687 359.672 74.6131 364.57 74.6131V89.8442ZM444.144 137.15H457.584C456.628 143.004 454.478 148.26 451.133 152.919C447.907 157.459 443.607 161.102 438.231 163.85C432.975 166.478 426.882 167.792 419.954 167.792C411.592 167.792 404.066 165.821 397.376 161.879C390.686 157.817 385.37 152.322 381.428 145.393C377.605 138.345 375.694 130.341 375.694 121.382C375.694 112.422 377.546 104.418 381.249 97.3702C385.071 90.3221 390.268 84.7672 396.838 80.7055C403.409 76.6439 410.815 74.6131 419.058 74.6131C427.778 74.6131 435.125 76.5842 441.098 80.5263C447.191 84.3491 451.67 90.0234 454.538 97.5494C457.524 104.956 458.719 114.095 458.121 124.965H390.029C390.626 130.819 392.239 135.956 394.867 140.376C397.495 144.796 400.96 148.26 405.26 150.769C409.561 153.158 414.459 154.353 419.954 154.353C426.046 154.353 431.183 152.8 435.364 149.694C439.665 146.468 442.591 142.287 444.144 137.15ZM419.595 88.0523C412.189 88.0523 405.977 90.2026 400.96 94.5032C395.942 98.8037 392.597 104.657 390.925 112.064H443.428C442.95 104.179 440.381 98.2064 435.723 94.1448C431.183 90.0831 425.807 88.0523 419.595 88.0523ZM472.305 137.15H485.565C485.924 142.287 487.835 146.468 491.299 149.694C494.883 152.919 500.02 154.532 506.71 154.532C510.771 154.532 513.937 153.994 516.207 152.919C518.596 151.844 520.328 150.41 521.403 148.619C522.479 146.707 523.016 144.617 523.016 142.347C523.016 139.599 522.299 137.449 520.866 135.896C519.552 134.224 517.7 132.85 515.311 131.775C513.041 130.7 510.413 129.684 507.427 128.728C503.962 127.414 500.378 126.041 496.675 124.607C493.091 123.054 489.687 121.262 486.461 119.231C483.355 117.081 480.847 114.513 478.935 111.526C477.024 108.42 476.068 104.717 476.068 100.416C476.068 96.8326 476.785 93.4878 478.219 90.3818C479.652 87.1564 481.683 84.4088 484.311 82.1391C487.059 79.7499 490.224 77.8982 493.808 76.5842C497.511 75.2701 501.573 74.6131 505.993 74.6131C511.966 74.6131 516.983 75.8077 521.045 78.1969C525.226 80.5861 528.392 83.9907 530.542 88.4107C532.812 92.7113 534.006 97.7286 534.126 103.463H521.762C520.926 98.087 519.193 94.2045 516.565 91.8153C514.057 89.3067 510.413 88.0523 505.635 88.0523C500.737 88.0523 496.974 89.1275 494.346 91.2777C491.718 93.428 490.403 96.2951 490.403 99.8789C490.403 102.507 491.359 104.717 493.271 106.509C495.182 108.181 497.631 109.734 500.617 111.168C503.723 112.482 507.008 113.856 510.473 115.289C513.937 116.723 517.282 118.156 520.507 119.59C523.733 121.023 526.6 122.696 529.109 124.607C531.617 126.518 533.588 128.908 535.022 131.775C536.575 134.522 537.351 137.987 537.351 142.168C537.351 147.185 536.157 151.665 533.767 155.607C531.498 159.43 528.093 162.416 523.554 164.566C519.134 166.717 513.698 167.792 507.247 167.792C501.394 167.792 496.376 167.075 492.195 165.642C488.134 164.089 484.729 162.118 481.982 159.728C479.234 157.22 477.084 154.592 475.531 151.844C474.097 149.096 473.142 146.409 472.664 143.78C472.186 141.152 472.066 138.942 472.305 137.15Z" fill="#757E78"/>
</svg>
